<svg width="265" height="166" viewBox="0 0 265 166" fill="none" xmlns="http://www.w3.org/2000/svg">
<path d="M4.26886 164.919H3.22156V156.868H0.240784V155.983H7.24963V156.868H4.26886V164.919Z" fill="white"/>
<path d="M15.3067 164.919L12.7287 161.458H10.1508V164.919H9.10345V155.983H12.9704C14.9039 155.983 16.1929 157.029 16.1929 158.64C16.1929 160.169 15.1456 160.974 13.776 161.296L16.5151 164.919H15.3067ZM12.8898 156.868H10.1508V160.491H12.8898C14.2594 160.491 15.2261 159.767 15.2261 158.64C15.2261 157.512 14.34 156.868 12.8898 156.868Z" fill="white"/>
<path d="M26.7464 164.919H25.6991L24.6518 162.585H19.8181L18.7708 164.919H17.7235L21.8321 155.902H22.7989L26.7464 164.919ZM22.1544 157.029L20.1404 161.618H24.1684L22.1544 157.029Z" fill="white"/>
<path d="M35.2053 158.157C35.2053 159.364 34.4803 159.928 33.7552 160.25C34.8025 160.572 35.6887 161.216 35.6887 162.424C35.6887 163.953 34.3997 164.839 32.4662 164.839H28.5187V155.902H32.3051C34.0775 155.983 35.2053 156.788 35.2053 158.157ZM34.158 158.318C34.158 157.432 33.433 156.868 32.144 156.868H29.4049V159.928H32.0634C33.3524 159.928 34.158 159.364 34.158 158.318ZM34.6414 162.343C34.6414 161.377 33.8358 160.813 32.2246 160.813H29.4049V163.953H32.3857C33.8358 163.953 34.6414 163.39 34.6414 162.343Z" fill="white"/>
<path d="M46.0006 164.919H44.9533L43.906 162.585H39.0723L38.025 164.919H36.9777L41.0864 155.902H42.0531L46.0006 164.919ZM41.4892 157.029L39.4751 161.618H43.5032L41.4892 157.029Z" fill="white"/>
<path d="M47.7729 155.983H48.8202V163.953H53.8151V164.919H47.7729V155.983Z" fill="white"/>
<path d="M56.7153 160.894V164.919H55.668V155.983H56.7153V159.928H61.8712V155.983H62.9185V164.919H61.8712V160.894H56.7153Z" fill="white"/>
<path d="M73.7137 164.919H72.6664L71.6191 162.585H66.7855L65.7382 164.919H64.6909L68.7995 155.902H69.7662L73.7137 164.919ZM69.2023 157.029L67.1883 161.618H71.2969L69.2023 157.029Z" fill="white"/>
<path d="M81.6894 164.919L79.1114 161.458H76.5334V164.919H75.4861V155.983H79.3531C81.2865 155.983 82.5755 157.029 82.5755 158.64C82.5755 160.169 81.5282 160.974 80.1587 161.296L82.8978 164.919H81.6894ZM79.2725 156.868H76.5334V160.491H79.2725C80.6421 160.491 81.6088 159.767 81.6088 158.64C81.6088 157.512 80.7226 156.868 79.2725 156.868Z" fill="white"/>
<path d="M92.8874 162.424H92.8068L89.5844 157.674V164.919H88.6176V155.983H89.5844L92.8874 160.813L96.1098 155.983H97.1571V164.919H96.1098V157.674L92.8874 162.424Z" fill="white"/>
<path d="M108.033 164.919H106.986L105.938 162.585H101.105L100.057 164.919H99.0101L103.119 155.902H104.085L108.033 164.919ZM103.441 157.029L101.427 161.618H105.536L103.441 157.029Z" fill="white"/>
<path d="M110.933 155.983H109.886V164.919H110.933V155.983Z" fill="white"/>
<path d="M116.734 159.928C118.748 160.33 119.634 161.055 119.634 162.504C119.634 164.034 118.345 165.08 116.572 165.08C115.122 165.08 113.995 164.597 112.947 163.631L113.592 162.907C114.558 163.712 115.445 164.195 116.653 164.195C117.861 164.195 118.667 163.551 118.667 162.665C118.667 161.86 118.184 161.377 116.331 160.974C114.236 160.491 113.35 159.847 113.35 158.398C113.35 156.949 114.558 155.983 116.25 155.983C117.539 155.983 118.506 156.385 119.392 157.11L118.828 157.915C118.023 157.271 117.136 156.949 116.25 156.949C115.122 156.949 114.317 157.593 114.317 158.398C114.236 159.042 114.72 159.525 116.734 159.928Z" fill="white"/>
<path d="M128.657 161.699H126.482V164.839H125.434V155.902H128.818C130.832 155.902 132.201 156.949 132.201 158.72C132.201 160.733 130.59 161.699 128.657 161.699ZM128.737 156.868H126.482V160.813H128.657C130.107 160.813 131.074 160.008 131.074 158.801C131.154 157.512 130.187 156.868 128.737 156.868Z" fill="white"/>
<path d="M141.466 164.919H140.419L139.371 162.585H134.538L133.49 164.919H132.443L136.552 155.902H137.518L141.466 164.919ZM136.874 157.029L134.86 161.618H138.969L136.874 157.029Z" fill="white"/>
<path d="M149.361 164.919L146.783 161.458H144.205V164.919H143.158V155.983H147.025C148.958 155.983 150.247 157.029 150.247 158.64C150.247 160.169 149.2 160.974 147.83 161.296L150.569 164.919H149.361ZM147.025 156.868H144.205V160.491H146.944C148.314 160.491 149.28 159.767 149.28 158.64C149.28 157.512 148.475 156.868 147.025 156.868Z" fill="white"/>
<path d="M160.801 164.919H159.753L158.706 162.585H153.872L152.825 164.919H151.778L155.886 155.902H156.853L160.801 164.919ZM156.209 157.029L154.195 161.618H158.303L156.209 157.029Z" fill="white"/>
<path d="M172.804 156.868H167.407V160.089H172.24V160.974H167.407V164.919H166.359V155.983H172.804V156.868Z" fill="white"/>
<path d="M182.069 164.919H181.022L179.974 162.585H175.141L174.093 164.919H173.046L177.155 155.902H178.121L182.069 164.919ZM177.558 157.029L175.543 161.618H179.652L177.558 157.029Z" fill="white"/>
<path d="M183.6 156.868V155.983H190.608V156.627L184.808 163.953H190.608V164.919H183.439V164.195L189.239 156.868H183.6Z" fill="white"/>
<path d="M199.148 156.868H193.75V159.928H198.584V160.813H193.75V163.953H199.229V164.919H192.703V155.983H199.148V156.868Z" fill="white"/>
<path d="M207.446 164.919L204.868 161.458H202.29V164.919H201.243V155.983H205.11C207.043 155.983 208.332 157.029 208.332 158.64C208.332 160.169 207.285 160.974 205.915 161.296L208.654 164.919H207.446ZM205.029 156.868H202.29V160.491H205.029C206.399 160.491 207.365 159.767 207.365 158.64C207.285 157.512 206.479 156.868 205.029 156.868Z" fill="white"/>
<path d="M218.644 162.424H218.563L215.341 157.674V164.919H214.374V155.983H215.341L218.644 160.813L221.866 155.983H222.914V164.919H221.866V157.674L218.644 162.424Z" fill="white"/>
<path d="M233.789 164.919H232.742L231.695 162.585H226.861L225.814 164.919H224.767L228.875 155.902H229.842L233.789 164.919ZM229.197 157.029L227.183 161.618H231.292L229.197 157.029Z" fill="white"/>
<path d="M236.69 155.983H235.642V164.919H236.69V155.983Z" fill="white"/>
<path d="M242.41 159.928C244.424 160.33 245.31 161.055 245.31 162.504C245.31 164.034 244.021 165.08 242.248 165.08C240.798 165.08 239.67 164.597 238.623 163.631L239.268 162.907C240.234 163.712 241.121 164.195 242.329 164.195C243.537 164.195 244.343 163.551 244.343 162.665C244.343 161.86 243.86 161.377 242.007 160.974C239.912 160.491 239.026 159.847 239.026 158.398C239.026 156.949 240.234 155.983 241.926 155.983C243.215 155.983 244.182 156.385 245.068 157.11L244.504 157.915C243.699 157.271 242.812 156.949 241.926 156.949C240.798 156.949 239.993 157.593 239.993 158.398C239.993 159.042 240.476 159.525 242.41 159.928Z" fill="white"/>
<path d="M14.339 112.346H25.4565L39.5548 145.999H27.39L25.6177 141.491H13.9362L12.2444 145.999H0.240784L14.339 112.346ZM22.8786 133.601L19.8172 125.469L16.7559 133.601H22.8786Z" fill="white"/>
<path d="M40.9252 112.588H52.1233V136.419H67.8328V145.999H40.9252V112.588Z" fill="white"/>
<path d="M82.8978 112.346H94.0152L108.113 145.999H95.9487L94.1764 141.491H82.4949L80.8032 145.999H68.7995L82.8978 112.346ZM91.3567 133.601L88.2954 125.469L85.234 133.601H91.3567Z" fill="white"/>
<path d="M105.616 129.414V129.334C105.616 119.351 113.511 111.944 124.065 111.944C129.785 111.944 134.457 113.876 138.082 117.016L131.799 124.584C129.623 122.732 127.126 121.685 124.387 121.685C120.037 121.685 116.895 125.067 116.895 129.575V129.656C116.895 134.406 120.198 137.626 124.87 137.626C126.804 137.626 127.851 137.304 128.657 136.902V133.52H122.937V126.355H139.13V141.813C135.504 144.792 130.429 146.805 124.387 146.805C113.914 146.724 105.616 139.72 105.616 129.414Z" fill="white"/>
<path d="M140.66 129.414V129.334C140.66 119.673 148.636 111.944 158.948 111.944C169.26 111.944 177.155 119.592 177.155 129.253V129.334C177.155 138.995 169.179 146.724 158.867 146.724C148.555 146.724 140.66 139.076 140.66 129.414ZM165.876 129.414V129.334C165.876 125.389 163.137 121.766 158.867 121.766C154.597 121.766 151.939 125.308 151.939 129.253V129.334C151.939 133.279 154.678 136.902 158.948 136.902C163.218 136.821 165.876 133.279 165.876 129.414Z" fill="white"/>
<path d="M187.789 112.346H198.906L213.005 145.999H200.84L199.067 141.491H187.386L185.694 145.999H173.771L187.789 112.346ZM196.328 133.601L193.267 125.469L190.206 133.601H196.328Z" fill="white"/>
<path d="M212.038 141.008L217.999 133.923C221.625 136.66 225.814 137.868 229.681 137.868C231.695 137.868 232.581 137.304 232.581 136.419V136.258C232.581 135.292 231.534 134.808 227.908 134.084C220.416 132.554 213.81 130.38 213.81 123.376V123.295C213.81 116.935 218.805 112.024 227.989 112.024C234.434 112.024 239.187 113.554 243.054 116.613L237.576 124.181C234.434 121.927 230.648 120.88 227.506 120.88C225.814 120.88 225.089 121.444 225.089 122.249V122.329C225.089 123.215 225.975 123.779 229.52 124.503C238.059 126.113 243.779 128.529 243.779 135.292V135.372C243.779 142.376 237.979 146.724 229.036 146.724C222.43 146.644 216.308 144.711 212.038 141.008Z" fill="white"/>
<path d="M2.0946 104.537C0.805615 104.537 0 103.651 0 102.443C0 101.316 0.805615 100.35 2.01404 100.35C2.73909 100.35 3.1419 100.511 3.54471 100.914L3.22246 101.236C2.90021 100.994 2.57797 100.753 2.01404 100.753C1.12786 100.753 0.483369 101.477 0.483369 102.443C0.483369 103.409 1.12786 104.134 2.0946 104.134C2.57797 104.134 2.98077 103.973 3.30302 103.731V102.685H2.01404V102.282H3.70583V103.892C3.30302 104.295 2.73909 104.537 2.0946 104.537Z" fill="white"/>
<path d="M11.0369 104.537C9.8285 104.537 8.94232 103.57 8.94232 102.443C8.94232 101.316 9.74794 100.35 11.0369 100.35C12.2453 100.35 13.1315 101.316 13.1315 102.443C13.1315 103.57 12.2453 104.537 11.0369 104.537ZM11.0369 100.753C10.0702 100.753 9.42569 101.477 9.42569 102.443C9.42569 103.409 10.0702 104.134 11.0369 104.134C12.0037 104.134 12.6481 103.409 12.6481 102.443C12.6481 101.558 12.0037 100.753 11.0369 100.753Z" fill="white"/>
<path d="M21.3488 100.43H21.8322L20.0598 104.537H19.657L17.8846 100.43H18.368L19.8181 103.973L21.3488 100.43Z" fill="white"/>
<path d="M29.9689 100.833H27.4715V102.202H29.6466V102.685H27.4715V104.053H29.9689V104.537H26.9881V100.43H29.9689V100.833Z" fill="white"/>
<path d="M38.1055 104.537L36.8971 102.926H35.7693V104.537H35.2859V100.43H37.0582C37.9444 100.43 38.5084 100.914 38.5084 101.638C38.5084 102.282 38.025 102.685 37.3805 102.846L38.6695 104.537H38.1055ZM36.9777 100.833H35.6887V102.524H36.9777C37.6222 102.524 38.025 102.202 38.025 101.638C38.025 101.155 37.7027 100.833 36.9777 100.833Z" fill="white"/>
<path d="M46.8868 100.43H47.3702V104.537H46.9673L44.3088 101.155V104.537H43.906V100.43H44.3088L46.8868 103.731V100.43Z" fill="white"/>
<path d="M54.7818 104.537C53.5734 104.537 52.6872 103.57 52.6872 102.443C52.6872 101.316 53.5734 100.35 54.7818 100.35C55.9902 100.35 56.8764 101.316 56.8764 102.443C56.8764 103.57 55.9902 104.537 54.7818 104.537ZM54.7818 100.753C53.8151 100.753 53.1706 101.477 53.1706 102.443C53.1706 103.409 53.8151 104.134 54.7818 104.134C55.7485 104.134 56.393 103.409 56.393 102.443C56.393 101.558 55.668 100.753 54.7818 100.753Z" fill="white"/>
<path d="M69.7662 104.537H68.3161V100.43H69.7662C71.0552 100.43 71.9414 101.316 71.9414 102.443C71.9414 103.57 71.0552 104.537 69.7662 104.537ZM69.7662 100.833H68.7995V104.053H69.7662C70.8135 104.053 71.458 103.329 71.458 102.443C71.458 101.558 70.8135 100.833 69.7662 100.833Z" fill="white"/>
<path d="M79.192 104.537C77.9835 104.537 77.0974 103.57 77.0974 102.443C77.0974 101.316 77.903 100.35 79.192 100.35C80.4004 100.35 81.2866 101.316 81.2866 102.443C81.2866 103.57 80.4004 104.537 79.192 104.537ZM79.192 100.753C78.2252 100.753 77.5807 101.477 77.5807 102.443C77.5807 103.409 78.2252 104.134 79.192 104.134C80.1587 104.134 80.8032 103.409 80.8032 102.443C80.8032 101.558 80.0781 100.753 79.192 100.753Z" fill="white"/>
<path d="M95.707 100.833H93.2096V102.202H95.4654V102.685H93.2096V104.053H95.707V104.537H92.7263V100.43H95.707V100.833Z" fill="white"/>
<path d="M102.474 102.202C103.36 102.363 103.844 102.765 103.844 103.329C103.844 104.053 103.28 104.456 102.474 104.456C101.83 104.456 101.266 104.214 100.782 103.812L101.105 103.49C101.507 103.892 101.91 104.053 102.474 104.053C103.038 104.053 103.36 103.731 103.36 103.329C103.36 102.926 103.119 102.765 102.313 102.524C101.346 102.282 100.944 102.041 100.944 101.316C100.944 100.672 101.507 100.189 102.313 100.189C102.877 100.189 103.36 100.35 103.763 100.672L103.522 100.994C103.119 100.672 102.796 100.511 102.313 100.511C101.749 100.511 101.427 100.833 101.427 101.155C101.427 101.799 101.588 102.041 102.474 102.202Z" fill="white"/>
<path d="M110.611 104.537H110.128V100.833H108.758V100.43H111.98V100.833H110.611V104.537Z" fill="white"/>
<path d="M120.52 104.537H120.037L119.553 103.49H117.298L116.814 104.537H116.331L118.184 100.43H118.587L120.52 104.537ZM118.425 100.914L117.459 103.007H119.312L118.425 100.914Z" fill="white"/>
<path d="M127.126 104.537H125.676V100.43H127.126C128.415 100.43 129.301 101.316 129.301 102.443C129.301 103.57 128.415 104.537 127.126 104.537ZM127.126 100.833H126.159V104.053H127.126C128.173 104.053 128.818 103.329 128.818 102.443C128.818 101.558 128.173 100.833 127.126 100.833Z" fill="white"/>
<path d="M136.552 104.537C135.343 104.537 134.457 103.57 134.457 102.443C134.457 101.316 135.343 100.35 136.552 100.35C137.76 100.35 138.646 101.316 138.646 102.443C138.646 103.57 137.76 104.537 136.552 104.537ZM136.552 100.753C135.585 100.753 134.94 101.477 134.94 102.443C134.94 103.409 135.585 104.134 136.552 104.134C137.518 104.134 138.163 103.409 138.163 102.443C138.163 101.558 137.438 100.753 136.552 100.753Z" fill="white"/>
<path d="M138.324 29.3397C140.338 29.0176 139.21 17.1021 133.651 17.9072C127.287 18.7928 136.229 29.6617 138.324 29.3397Z" fill="white"/>
<path d="M108.758 37.1492C104.73 38.3568 111.497 44.7977 113.108 44.1536C114.156 43.8315 113.592 35.7805 108.758 37.1492Z" fill="white"/>
<path d="M256.669 46.3274C252.641 45.2808 247.888 52.6877 249.338 53.4928C250.949 54.459 262.711 47.8571 256.669 46.3274Z" fill="white"/>
<path d="M263.114 39.484C260.214 38.6789 257.877 42.7045 258.602 43.107C259.569 43.5901 266.417 40.3696 263.114 39.484Z" fill="white"/>
<path d="M243.457 57.5184C245.874 54.2174 247.888 50.836 249.499 47.6156C249.499 47.6156 249.499 47.5351 249.579 47.5351V47.4545C253.849 38.8399 255.863 31.0304 255.702 24.1065C255.541 17.9877 253.608 12.674 249.982 8.64846C246.599 4.94497 242.007 2.44915 236.529 1.40251C231.211 0.516893 225.572 0.999956 220.175 3.01272C215.824 4.46191 211.877 6.71621 208.493 9.6951C206.801 11.2248 205.271 12.835 203.821 14.6062C199.148 16.941 194.637 20.1615 190.77 23.9455C186.016 28.5346 182.552 33.7677 180.297 39.323C177.96 45.2002 175.543 49.4673 173.127 52.8488C168.212 49.7894 163.62 46.9715 158.384 45.9248C153.953 40.6111 147.75 37.0687 140.741 35.861C140.177 35.7805 139.532 35.7 138.888 35.6195C130.832 29.4202 119.795 31.594 119.07 40.7722C116.734 42.7849 115.203 45.1197 114.478 47.7766C113.431 51.6411 114.075 55.9082 116.572 60.3362C117.62 62.188 118.909 63.8787 120.52 65.4889C128.496 76.6799 142.755 93.5066 161.445 102.202C166.198 104.376 170.71 105.825 175.946 105.583C176.188 105.583 176.349 105.583 176.591 105.583C176.591 105.583 176.591 105.583 176.671 105.583C206.801 103.812 258.28 66.6966 243.457 57.5184ZM140.66 36.7466C147.186 37.8738 152.906 41.0137 157.175 45.7638C154.759 45.4418 152.181 45.4418 149.442 46.0859C146.783 43.59 144.125 40.8527 141.466 37.9543C141.063 37.4712 140.58 37.0687 140.177 36.6661C140.258 36.6661 140.499 36.7466 140.66 36.7466ZM225.169 75.9553C219.53 81.108 214.374 85.375 209.782 89.0785C182.875 106.469 152.825 91.6548 134.538 70.9636L132.604 70.1585C126.159 67.9042 121.003 64.3618 118.264 61.7854C117.861 61.2219 117.539 60.6583 117.217 60.0947C114.881 55.8276 114.236 51.8021 115.203 48.1791C115.847 45.9248 117.136 43.8316 118.989 42.0603C118.989 44.0731 119.473 46.3274 120.439 48.8232C123.259 55.9887 127.932 63.3956 133.893 70.3195C134.135 70.4001 134.377 70.5611 134.618 70.7221C134.699 70.7221 134.779 70.8026 134.86 70.8026C142.755 73.54 156.128 74.7476 171.515 62.671C170.468 62.1075 169.501 61.5439 168.454 60.8998C162.09 67.6627 155.242 70.8831 148.717 71.8492C139.371 62.2685 135.907 50.3529 146.622 46.8105C147.589 46.4884 148.475 46.2469 149.361 46.0859L149.442 46.1664C150.167 46.7299 150.892 47.2935 151.617 47.9376C151.778 48.0181 151.858 48.1791 152.02 48.2597L152.1 48.3402C152.261 48.4207 152.422 48.5817 152.503 48.6622C152.503 48.6622 152.503 48.6622 152.583 48.6622C152.745 48.7427 152.906 48.9037 153.067 48.9842C153.228 49.1453 153.389 49.2258 153.55 49.3868C153.711 49.5478 153.872 49.6283 154.034 49.7894C156.128 51.4801 158.545 53.2513 161.204 55.103L168.535 60.7388L173.368 54.2174C176.027 50.1919 178.444 45.3613 180.78 39.645C185.453 27.971 194.073 20.081 203.821 15.5724C202.37 17.5046 201.162 19.5979 200.115 21.9327C190.85 42.3824 181.102 55.0225 171.918 62.51C179.652 66.7771 187.305 69.5144 194.637 70.8026C198.423 71.4467 202.209 71.6882 205.835 71.6077C223.478 71.2052 238.543 62.027 248.129 46.7299L248.452 46.2469C248.452 46.1664 248.532 46.0859 248.532 46.0054C248.613 45.8443 248.693 45.6833 248.774 45.5223C248.854 45.4418 248.854 45.3613 248.935 45.2003C249.016 45.0392 249.096 44.8782 249.096 44.7977C249.177 44.7172 249.177 44.6367 249.257 44.4757C249.338 44.3146 249.338 44.2341 249.418 44.0731C249.499 43.9926 249.499 43.8316 249.499 43.7511C249.579 43.59 249.579 43.5095 249.66 43.3485C249.66 43.268 249.741 43.107 249.741 43.0265C249.821 42.8654 249.821 42.7849 249.902 42.6239C249.902 42.5434 249.982 42.3824 249.982 42.3019C250.063 42.1409 250.063 42.0603 250.143 41.8993C250.143 41.8188 250.224 41.6578 250.224 41.5773C250.224 41.4968 250.305 41.3357 250.305 41.2552C250.305 41.1747 250.385 41.0137 250.385 40.9332C250.385 40.8527 250.466 40.6917 250.466 40.6111C250.466 40.5306 250.546 40.3696 250.546 40.2891C250.546 40.2086 250.627 40.0476 250.627 39.9671C250.627 39.8866 250.707 39.7255 250.707 39.645C250.707 39.5645 250.788 39.4035 250.788 39.323C250.788 39.2425 250.868 39.0815 250.868 39.0009C250.868 38.9204 250.949 38.7594 250.949 38.6789C250.949 38.5984 251.03 38.5179 251.03 38.3569C251.03 38.2763 251.11 38.1153 251.11 38.0348C251.11 37.9543 251.191 37.8738 251.191 37.7128C251.191 37.6323 251.271 37.4712 251.271 37.3907C251.271 37.3102 251.271 37.2297 251.352 37.0687C251.352 36.9882 251.352 36.8272 251.432 36.7466C251.432 36.6661 251.432 36.5856 251.513 36.4246C251.513 36.3441 251.513 36.1831 251.594 36.1026C251.594 36.022 251.594 35.9415 251.594 35.7805C251.594 35.7 251.594 35.539 251.674 35.4585C251.674 35.378 251.674 35.2975 251.674 35.1364C251.674 35.0559 251.674 34.8949 251.674 34.8144C251.674 34.7339 251.674 34.6534 251.674 34.4923C251.674 34.4118 251.674 34.2508 251.674 34.1703C251.674 34.0898 251.674 34.0093 251.674 33.8483C251.674 33.7678 251.674 33.6067 251.674 33.5262C251.674 33.4457 251.674 33.3652 251.674 33.2847C251.674 33.2042 251.674 33.1237 251.674 32.9626C251.674 32.8821 251.674 32.8016 251.674 32.7211C251.674 32.6406 251.674 32.5601 251.674 32.3991C251.674 32.3186 251.674 32.2381 251.674 32.1575C251.674 32.077 251.674 31.9965 251.674 31.8355C251.674 31.755 251.674 31.6745 251.674 31.594C251.674 31.5135 251.674 31.4329 251.674 31.2719C251.674 31.1914 251.674 31.1109 251.674 31.0304C251.674 30.9499 251.674 30.8694 251.674 30.7084C251.674 30.6278 251.674 30.5473 251.674 30.4668C251.674 30.3863 251.674 30.3058 251.674 30.2253C251.674 30.1448 251.674 30.0643 251.674 29.9838C251.674 29.9032 251.674 29.8227 251.674 29.7422C251.674 29.6617 251.674 29.5812 251.674 29.5007C251.674 29.4202 251.674 29.3397 251.674 29.2592C251.674 29.1786 251.674 29.0981 251.674 29.0176C251.674 28.9371 251.674 28.8566 251.594 28.7761C251.594 28.6956 251.594 28.6151 251.513 28.5346C251.513 28.4541 251.513 28.3735 251.432 28.293C251.432 28.2125 251.432 28.132 251.352 28.0515C251.352 27.971 251.352 27.8905 251.271 27.81C251.271 27.7295 251.271 27.649 251.191 27.5684C251.191 27.4879 251.11 27.4074 251.11 27.3269C251.11 27.2464 251.03 27.1659 251.03 27.0854C251.03 27.0049 250.949 26.9244 250.949 26.8438C250.949 26.7633 250.868 26.6828 250.868 26.6023C250.868 26.5218 250.788 26.4413 250.788 26.3608C250.788 26.2803 250.707 26.1998 250.707 26.1192C250.707 26.0387 250.627 25.9582 250.627 25.8777C250.627 25.7972 250.546 25.7167 250.546 25.6362C250.546 25.5557 250.466 25.4752 250.466 25.3947C250.466 25.3141 250.385 25.2336 250.385 25.1531C250.385 25.0726 250.305 24.9921 250.305 24.9116C250.305 24.8311 250.224 24.7506 250.224 24.6701C250.224 24.5895 250.143 24.509 250.143 24.4285C250.143 24.348 250.063 24.2675 250.063 24.187C250.063 24.1065 249.982 24.026 249.982 23.9455C249.982 23.865 249.902 23.7844 249.902 23.7039C249.902 23.6234 249.821 23.5429 249.821 23.4624C249.821 23.3819 249.741 23.3014 249.741 23.2209C249.741 23.1404 249.66 23.0598 249.66 22.9793C249.66 22.8988 249.579 22.8183 249.579 22.7378C249.499 22.6573 249.499 22.5768 249.418 22.4963C249.418 22.4158 249.338 22.3353 249.257 22.2547C249.177 22.1742 249.177 22.0937 249.096 22.0132C249.016 21.9327 249.016 21.8522 248.935 21.7717C248.854 21.6912 248.854 21.6107 248.774 21.5301C248.693 21.4496 248.693 21.3691 248.613 21.2886C248.532 21.2081 248.532 21.1276 248.452 21.0471C248.371 20.9666 248.371 20.8861 248.29 20.8861C248.21 20.8056 248.21 20.725 248.129 20.725C248.049 20.725 248.049 20.564 247.968 20.564C247.888 20.4835 247.888 20.403 247.807 20.403C247.727 20.3225 247.727 20.242 247.646 20.242C247.565 20.1615 247.565 20.081 247.485 20.081C247.404 20.0004 247.404 19.9199 247.324 19.9199C247.243 19.8394 247.243 19.7589 247.163 19.7589C247.082 19.6784 247.082 19.5979 247.002 19.5979C246.921 19.5174 246.921 19.5174 246.84 19.4369C246.76 19.3564 246.76 19.2759 246.679 19.2759C246.599 19.1953 246.599 19.1953 246.518 19.1148C246.438 19.0343 246.438 18.9538 246.357 18.9538C246.276 18.8733 246.276 18.8733 246.196 18.7928C246.115 18.7123 246.115 18.6318 246.035 18.6318C245.954 18.5513 245.954 18.5513 245.874 18.4707C245.793 18.3902 245.713 18.3902 245.713 18.3097C245.632 18.2292 245.632 18.2292 245.551 18.1487C245.471 18.0682 245.39 18.0682 245.39 17.9877C245.31 17.9072 245.31 17.9072 245.229 17.8267C245.149 17.7462 245.068 17.7462 245.068 17.6656C244.987 17.5851 244.987 17.5851 244.907 17.5046C244.826 17.4241 244.746 17.4241 244.665 17.3436C244.585 17.2631 244.585 17.2631 244.504 17.1826C244.424 17.1021 244.343 17.1021 244.262 17.0216C244.182 16.941 244.182 16.941 244.101 16.8605C244.021 16.78 243.94 16.78 243.86 16.6995C243.779 16.619 243.779 16.619 243.698 16.5385C243.618 16.458 243.537 16.458 243.457 16.3775C243.376 16.297 243.376 16.297 243.296 16.297C243.215 16.2165 243.135 16.2165 243.054 16.1359C242.973 16.1359 242.973 16.0554 242.893 16.0554C242.812 15.9749 242.732 15.9749 242.651 15.8944C242.571 15.8944 242.571 15.8139 242.49 15.8139C242.41 15.7334 242.329 15.7334 242.248 15.6529C242.168 15.6529 242.168 15.5724 242.087 15.5724C242.007 15.4919 241.926 15.4919 241.765 15.4113L241.684 15.3308C241.604 15.2503 241.443 15.1698 241.362 15.1698C241.362 15.1698 241.362 15.1698 241.282 15.1698C240.395 14.6868 239.509 14.2037 238.543 13.8816C238.543 13.8816 238.543 13.8816 238.462 13.8816C238.301 13.8011 238.22 13.8011 238.059 13.7206H237.979C237.817 13.6401 237.737 13.6401 237.576 13.5596C237.576 13.5596 237.495 13.5596 237.495 13.4791C237.334 13.3986 237.254 13.3986 237.092 13.3181C237.012 13.3181 237.012 13.3181 236.931 13.2376C236.77 13.1571 236.69 13.1571 236.529 13.0765C236.448 13.0765 236.448 13.0765 236.367 12.996C236.206 12.9155 236.126 12.9155 235.965 12.835C235.884 12.835 235.884 12.835 235.803 12.7545C235.723 12.7545 235.562 12.674 235.401 12.674C235.32 12.674 235.32 12.674 235.24 12.5935C235.159 12.5935 234.998 12.513 234.837 12.513C234.756 12.513 234.756 12.513 234.676 12.4325C234.514 12.4325 234.434 12.3519 234.273 12.3519C234.192 12.3519 234.192 12.3519 234.112 12.2714C233.951 12.2714 233.87 12.1909 233.709 12.1909C233.628 12.1909 233.628 12.1909 233.548 12.1104C233.387 12.1104 233.306 12.0299 233.145 12.0299C233.064 12.0299 233.064 12.0299 232.984 11.9494C232.823 11.9494 232.742 11.8689 232.581 11.8689C232.5 11.8689 232.5 11.8689 232.42 11.7884C232.259 11.7884 232.178 11.7079 232.017 11.7079C231.937 11.7079 231.856 11.7079 231.856 11.7079C231.695 11.7079 231.614 11.6273 231.453 11.6273C231.373 11.6273 231.292 11.6273 231.292 11.6273C231.131 11.6273 231.05 11.5468 230.889 11.5468C230.809 11.5468 230.728 11.5468 230.728 11.5468C230.567 11.5468 230.486 11.4663 230.325 11.4663C230.245 11.4663 230.164 11.4663 230.164 11.4663C230.003 11.4663 229.922 11.4663 229.761 11.3858C229.681 11.3858 229.6 11.3858 229.6 11.3858C229.439 11.3858 229.359 11.3858 229.197 11.3053C229.117 11.3053 229.036 11.3053 229.036 11.3053C228.875 11.3053 228.795 11.3053 228.633 11.2248C228.553 11.2248 228.472 11.2248 228.472 11.2248C228.311 11.2248 228.231 11.2248 228.07 11.2248C227.989 11.2248 227.908 11.2248 227.908 11.2248C227.747 11.2248 227.667 11.2248 227.506 11.2248C227.425 11.2248 227.345 11.2248 227.345 11.2248C227.183 11.2248 227.103 11.2248 226.942 11.2248C226.861 11.2248 226.781 11.2248 226.781 11.2248C226.619 11.2248 226.539 11.2248 226.378 11.2248C226.297 11.2248 226.217 11.2248 226.217 11.2248C226.056 11.2248 225.975 11.2248 225.814 11.2248C225.733 11.2248 225.653 11.2248 225.653 11.2248C225.492 11.2248 225.411 11.2248 225.25 11.2248C225.169 11.2248 225.089 11.2248 225.089 11.2248C224.928 11.2248 224.847 11.2248 224.686 11.2248C224.605 11.2248 224.525 11.2248 224.525 11.2248C224.364 11.2248 224.283 11.2248 224.122 11.2248H223.961C223.8 11.2248 223.719 11.2248 223.558 11.2248C223.478 11.2248 223.397 11.2248 223.397 11.2248C223.236 11.2248 223.155 11.2248 222.994 11.2248C222.914 11.2248 222.833 11.2248 222.833 11.2248C222.672 11.2248 222.591 11.2248 222.43 11.2248C222.35 11.2248 222.269 11.2248 222.269 11.2248C222.108 11.2248 222.027 11.2248 221.866 11.2248C221.786 11.2248 221.705 11.2248 221.705 11.2248C221.544 11.2248 221.464 11.2248 221.302 11.2248C221.222 11.2248 221.141 11.2248 221.141 11.2248C220.98 11.2248 220.9 11.2248 220.738 11.2248C220.658 11.2248 220.577 11.2248 220.577 11.2248C220.416 11.2248 220.336 11.2248 220.175 11.2248H220.013C219.852 11.2248 219.772 11.2248 219.611 11.3053H219.449C219.288 11.3053 219.127 11.3053 219.047 11.3858C218.966 11.3858 218.886 11.3858 218.886 11.3858C218.724 11.3858 218.563 11.3858 218.483 11.4663C218.402 11.4663 218.322 11.4663 218.322 11.4663C218.16 11.4663 217.999 11.4663 217.919 11.5468C217.838 11.5468 217.758 11.5468 217.758 11.5468C217.597 11.5468 217.435 11.6273 217.355 11.6273C217.274 11.6273 217.194 11.6273 217.194 11.6273C217.033 11.6273 216.872 11.7079 216.791 11.7079C216.71 11.7079 216.63 11.7079 216.63 11.7079C216.469 11.7079 216.308 11.7884 216.227 11.7884C216.146 11.7884 216.146 11.7884 216.066 11.7884C215.905 11.7884 215.744 11.8689 215.663 11.8689C215.583 11.8689 215.583 11.8689 215.502 11.8689C215.341 11.8689 215.18 11.9494 215.019 11.9494C214.938 11.9494 214.938 11.9494 214.857 11.9494C214.696 11.9494 214.535 12.0299 214.374 12.0299C214.294 12.0299 214.294 12.0299 214.213 12.0299C214.052 12.0299 213.891 12.1104 213.73 12.1104C213.649 12.1104 213.649 12.1104 213.569 12.1909C213.407 12.1909 213.246 12.2714 213.085 12.2714C213.005 12.2714 213.005 12.2714 212.924 12.3519C212.763 12.3519 212.602 12.4325 212.441 12.513C212.36 12.513 212.36 12.513 212.28 12.5935C212.118 12.674 211.957 12.674 211.796 12.7545C211.716 12.7545 211.716 12.7545 211.635 12.835C211.474 12.9155 211.313 12.9155 211.152 12.996C211.071 12.996 211.071 12.996 210.991 13.0765C210.829 13.1571 210.668 13.1571 210.507 13.2376C210.427 13.2376 210.427 13.2376 210.346 13.3181C210.185 13.3986 210.024 13.3986 209.863 13.4791C209.782 13.4791 209.782 13.4791 209.702 13.5596C209.54 13.6401 209.379 13.6401 209.218 13.7206C209.218 13.7206 209.138 13.7206 209.138 13.8011C208.977 13.8816 208.815 13.8816 208.654 13.9622H208.574C208.413 14.0427 208.251 14.1232 208.09 14.1232H208.01C207.849 14.2037 207.688 14.2842 207.526 14.2842H207.446C207.285 14.3647 207.124 14.4452 206.882 14.5257C206.882 14.5257 206.882 14.5257 206.801 14.5257C206.64 14.6062 206.399 14.6868 206.237 14.7673C206.076 14.8478 205.835 14.9283 205.673 15.0088C205.271 15.1698 204.868 15.3308 204.546 15.4919C213.971 2.69068 230.567 -1.09332 242.087 4.13987C245.068 5.34753 247.646 7.19927 249.741 9.45356C253.205 13.3181 254.977 18.2292 255.138 24.1065C255.299 30.3863 253.527 37.3907 249.902 45.1197C249.016 47.052 248.049 48.7427 247.243 50.1919V50.2724C242.007 58.4845 234.917 67.1796 225.169 75.9553Z" fill="white"/>
</svg>
