<svg width="30" height="24" viewBox="0 0 30 24" fill="none" xmlns="http://www.w3.org/2000/svg">
<path d="M29.0405 2.76354C28.8612 3.12012 28.5923 3.38756 28.3234 3.655C27.696 4.45731 26.979 5.08134 26.1723 5.70536L26.0827 5.88366C26.0827 6.77512 26.0827 7.66658 25.993 8.4689C25.7241 10.341 25.1863 12.0348 24.4693 13.7285C23.6626 15.4223 22.587 17.0269 21.2426 18.3641C18.9122 20.6819 16.2232 22.1974 12.9965 22.9106C11.9209 23.178 10.7557 23.2672 9.68016 23.2672C9.50089 23.2672 9.32163 23.2672 9.14237 23.2672C5.91565 23.2672 2.95782 22.3757 0.179259 20.6819L0 20.5928C0.448156 20.6819 0.89631 20.6819 1.4341 20.6819C3.04746 20.6819 4.48155 20.4145 6.00528 19.7905C6.99122 19.3447 7.97717 18.8099 8.87348 18.0967C5.82602 18.0076 3.85413 15.7789 3.40598 13.996C3.7645 14.0851 4.12303 14.0851 4.48156 14.0851C4.92971 14.0851 5.4675 13.996 5.91565 13.9068H6.00528C4.30229 13.5502 3.04746 12.6588 2.15115 11.2324C1.52373 10.2518 1.25484 9.18207 1.25484 8.11231C2.06152 8.55805 2.95783 8.82548 3.94377 8.82548C2.68893 7.93402 1.88225 6.77512 1.52373 5.25963C1.1652 3.74414 1.4341 2.3178 2.24078 0.980609C5.4675 4.72475 9.5009 6.86427 14.5202 7.22085C14.5202 6.95341 14.4306 6.77512 14.4306 6.59683C14.2513 5.17049 14.6099 3.92244 15.3269 2.76354C16.3129 1.24805 17.6573 0.356585 19.3603 0.0891462C19.7188 -8.63449e-08 20.0774 0 20.4359 0C21.9596 0 23.3937 0.624024 24.5589 1.78293C24.6486 1.87207 24.7382 1.87207 24.7382 1.87207H24.8278C26.0827 1.60463 27.2479 1.1589 28.3234 0.534878H28.4131C27.9649 1.87207 27.0686 2.94183 25.9034 3.74414C26.8893 3.56585 27.9649 3.20927 29.0405 2.76354Z" fill="white"/>
</svg>
