<svg width="410" height="41" viewBox="0 0 410 41" fill="none" xmlns="http://www.w3.org/2000/svg">
<path d="M11.39 33.34C16.388 33.34 19.89 30.688 19.89 26.234V26.166C19.89 22.222 17.306 20.42 12.274 19.196C7.684 18.108 6.596 17.292 6.596 15.456V15.388C6.596 13.824 8.024 12.566 10.472 12.566C12.648 12.566 14.79 13.416 16.932 15.014L19.176 11.852C16.762 9.914 14.008 8.86 10.54 8.86C5.814 8.86 2.414 11.682 2.414 15.762V15.83C2.414 20.216 5.27 21.712 10.336 22.936C14.756 23.956 15.708 24.874 15.708 26.574V26.642C15.708 28.41 14.076 29.634 11.492 29.634C8.568 29.634 6.256 28.512 3.978 26.54L1.462 29.532C4.318 32.082 7.752 33.34 11.39 33.34ZM24.366 33H28.548V9.2H24.366V33ZM45.5271 33.408C49.7431 33.408 53.1091 31.708 55.4551 29.702V19.706H45.3231V23.378H51.4091V27.798C49.9471 28.886 47.9071 29.6 45.6631 29.6C40.8011 29.6 37.5711 25.996 37.5711 21.1V21.032C37.5711 16.476 40.9031 12.668 45.2891 12.668C48.3151 12.668 50.1171 13.654 51.9531 15.184L54.6051 12.022C52.1571 9.948 49.6071 8.792 45.4591 8.792C38.2851 8.792 33.1851 14.436 33.1851 21.1V21.168C33.1851 28.104 38.0811 33.408 45.5271 33.408ZM58.1812 33H62.4652L64.9132 27.254H76.1672L78.5812 33H83.0012L72.5292 9.03H68.6532L58.1812 33ZM66.4432 23.548L70.5232 14.028L74.6372 23.548H66.4432ZM93.8759 33H98.1599L100.608 27.254H111.862L114.276 33H118.696L108.224 9.03H104.348L93.8759 33ZM102.138 23.548L106.218 14.028L110.332 23.548H102.138ZM142.899 33.408C147.115 33.408 150.481 31.708 152.827 29.702V19.706H142.695V23.378H148.781V27.798C147.319 28.886 145.279 29.6 143.035 29.6C138.173 29.6 134.943 25.996 134.943 21.1V21.032C134.943 16.476 138.275 12.668 142.661 12.668C145.687 12.668 147.489 13.654 149.325 15.184L151.977 12.022C149.529 9.948 146.979 8.792 142.831 8.792C135.657 8.792 130.557 14.436 130.557 21.1V21.168C130.557 28.104 135.453 33.408 142.899 33.408ZM157.593 33H175.409V29.26H161.775V22.902H173.709V19.128H161.775V12.94H175.239V9.2H157.593V33ZM179.69 33H183.804V16.068L196.928 33H200.43V9.2H196.316V25.656L183.566 9.2H179.69V33ZM211.685 33H215.867V13.076H223.449V9.2H204.103V13.076H211.685V33ZM227.105 33H244.921V29.26H231.287V22.902H243.221V19.128H231.287V12.94H244.751V9.2H227.105V33Z" fill="white"/>
<rect x="259" y="4" width="3" height="32" fill="white"/>
<rect x="311" y="4" width="3" height="32" fill="white"/>
<rect x="407" y="4" width="3" height="32" fill="white"/>
<rect x="359" y="4" width="3" height="32" fill="white"/>
</svg>
