<svg width="27" height="27" viewBox="0 0 27 27" fill="none" xmlns="http://www.w3.org/2000/svg">
<path d="M20.0362 4.80511C19.223 4.80511 18.4836 5.49155 18.4836 6.40681C18.4836 7.24579 19.149 8.0085 20.0362 8.0085C20.8495 8.0085 21.5889 7.32206 21.5889 6.40681C21.5149 5.49155 20.8495 4.80511 20.0362 4.80511Z" fill="white"/>
<path d="M13.1603 6.86438C9.61147 6.86438 6.72803 9.83896 6.72803 13.5C6.72803 17.161 9.61147 20.1356 13.1603 20.1356C16.7092 20.1356 19.5926 17.161 19.5926 13.5C19.6666 9.83896 16.7092 6.86438 13.1603 6.86438ZM13.1603 17.7712C10.8684 17.7712 9.02 15.8644 9.02 13.5C9.02 11.1356 10.8684 9.22879 13.1603 9.22879C15.4523 9.22879 17.3007 11.1356 17.3007 13.5C17.3007 15.8644 15.4523 17.7712 13.1603 17.7712Z" fill="white"/>
<path d="M18.3357 27H7.83705C3.54885 27 0 23.339 0 18.839V8.08474C0 3.58474 3.54885 0 7.83705 0H18.2618C22.6239 0 26.0989 3.66102 26.0989 8.08474V18.839C26.1728 23.339 22.6239 27 18.3357 27ZM7.83705 2.51695C4.87967 2.51695 2.43984 5.0339 2.43984 8.08474V18.839C2.43984 21.8898 4.87967 24.4068 7.83705 24.4068H18.2618C21.2192 24.4068 23.659 21.8898 23.659 18.839V8.08474C23.659 5.0339 21.2192 2.51695 18.2618 2.51695H7.83705Z" fill="white"/>
</svg>
