<svg width="29" height="20" viewBox="0 0 29 20" fill="none" xmlns="http://www.w3.org/2000/svg">
<path d="M27.9381 2.59654C28.9241 5.27093 28.9241 15.077 27.6692 17.6623C27.3107 18.3754 26.7729 18.8212 26.1455 19.2669C25.1596 19.8018 19.6025 19.9801 14.0453 19.9801C9.026 19.9801 4.00666 19.8018 2.84145 19.4452C1.76588 19.0886 1.04884 18.3754 0.690315 17.3057C-0.205995 14.7204 -0.474885 3.75544 1.40737 1.61593C2.03478 0.902757 2.84146 0.457024 3.8274 0.367878C6.06818 0.100439 10.2808 0.0112915 14.4935 0.0112915C19.6921 0.0112915 24.8907 0.189583 25.8766 0.546168C26.7729 0.902753 27.49 1.61593 27.9381 2.59654ZM10.729 14.3638C13.6868 12.8484 16.6446 11.3329 19.6921 9.72824C16.7343 8.21275 13.7764 6.60812 10.8186 5.09263C10.729 8.21275 10.729 11.2437 10.729 14.3638Z" fill="white"/>
</svg>
