<svg width="14" height="14" viewBox="0 0 14 14" fill="none" xmlns="http://www.w3.org/2000/svg">
<path d="M8.16662 1.75002C8.44078 1.75002 8.72078 1.75002 9.00078 1.75002C9.17852 1.75826 9.35571 1.77579 9.53162 1.80252V3.47085H8.41745C7.97412 3.47085 7.64745 3.65168 7.62412 4.20585C7.62412 4.60252 7.62412 5.48335 7.62412 5.53002H9.46745C9.37995 6.17168 9.29828 6.79002 9.20495 7.41418H7.58328L7.54828 12.0808H5.61745L5.65245 7.37918H4.08328V5.51252H5.67578V5.43085C5.67578 5.05168 5.67578 4.67835 5.67578 4.29918C5.67714 4.05865 5.69861 3.81864 5.73995 3.58168C5.78251 3.30448 5.87971 3.03849 6.02591 2.79916C6.17212 2.55983 6.3644 2.35192 6.59162 2.18752C7.00642 1.90088 7.49908 1.7482 8.00328 1.75002H8.16662Z" fill="white"/>
</svg>
