<svg width="24" height="24" viewBox="0 0 24 24" fill="none" xmlns="http://www.w3.org/2000/svg">
<path d="M12 2.92004C10.3532 2.92154 8.73799 3.37184 7.32796 4.22254C5.91793 5.07324 4.76643 6.29216 3.99725 7.74826C3.22806 9.20436 2.87029 10.8426 2.9624 12.4868C3.0545 14.131 3.59299 15.719 4.51999 17.08L3.61999 21.08L7.67999 19.98C8.89125 20.6168 10.2311 20.9705 11.5988 21.0147C12.9665 21.0588 14.3264 20.7923 15.5763 20.235C16.8261 19.6778 17.9332 18.8444 18.8145 17.7975C19.6957 16.7506 20.3281 15.5175 20.664 14.1909C20.9999 12.8644 21.0306 11.4789 20.7538 10.1388C20.477 8.79869 19.9 7.53878 19.066 6.45387C18.232 5.36895 17.1628 4.48729 15.939 3.8752C14.7151 3.26311 13.3683 2.93654 12 2.92004V2.92004ZM13.71 16.64C13.6761 17.0956 13.4712 17.5214 13.1364 17.8321C12.8016 18.1429 12.3618 18.3156 11.905 18.3156C11.4482 18.3156 11.0083 18.1429 10.6736 17.8321C10.3388 17.5214 10.1339 17.0956 10.1 16.64V11.88C10.0815 11.6317 10.1144 11.3822 10.1968 11.1472C10.2791 10.9122 10.409 10.6967 10.5784 10.5142C10.7479 10.3317 10.9531 10.1861 11.1814 10.0865C11.4096 9.98699 11.656 9.9356 11.905 9.9356C12.154 9.9356 12.4003 9.98699 12.6286 10.0865C12.8569 10.1861 13.0621 10.3317 13.2315 10.5142C13.4009 10.6967 13.5309 10.9122 13.6132 11.1472C13.6955 11.3822 13.7285 11.6317 13.71 11.88V16.64ZM12 9.31004C11.6218 9.31202 11.2515 9.20169 10.9361 8.99302C10.6207 8.78436 10.3744 8.48675 10.2283 8.13793C10.0822 7.7891 10.0429 7.40475 10.1155 7.03359C10.188 6.66243 10.3692 6.32117 10.6359 6.05305C10.9026 5.78493 11.2429 5.60202 11.6137 5.52751C11.9844 5.453 12.369 5.49023 12.7186 5.6345C13.0682 5.77876 13.3671 6.02356 13.5774 6.33787C13.7877 6.65218 13.9 7.02186 13.9 7.40004C13.9013 7.6504 13.8531 7.89854 13.7582 8.13021C13.6633 8.36189 13.5236 8.57252 13.347 8.75002C13.1705 8.92751 12.9606 9.06836 12.7294 9.16446C12.4982 9.26057 12.2503 9.31005 12 9.31004V9.31004Z" fill="white"/>
</svg>
