<svg width="24" height="24" viewBox="0 0 24 24" fill="none" xmlns="http://www.w3.org/2000/svg">
<path d="M12 3.05005C10.22 3.05005 8.47991 3.57789 6.99987 4.56682C5.51983 5.55576 4.36628 6.96136 3.68509 8.6059C3.0039 10.2504 2.82567 12.06 3.17294 13.8059C3.5202 15.5517 4.37737 17.1553 5.63604 18.414C6.89472 19.6727 8.49836 20.5299 10.2442 20.8771C11.99 21.2244 13.7996 21.0462 15.4442 20.365C17.0887 19.6838 18.4943 18.5302 19.4832 17.0502C20.4722 15.5701 21 13.8301 21 12.05C21 9.6631 20.0518 7.37392 18.364 5.68609C16.6761 3.99826 14.387 3.05005 12 3.05005V3.05005ZM12 18.33C10.9501 18.3278 9.91799 18.0595 9 17.55V17.55L6.17 18.32L6.79 15.56C5.99452 14.3905 5.61369 12.9882 5.70825 11.5769C5.80281 10.1656 6.36733 8.82666 7.31174 7.77367C8.25614 6.72069 9.52601 6.01435 10.9187 5.76735C12.3114 5.52036 13.7468 5.74694 14.9957 6.41094C16.2446 7.07495 17.2351 8.13812 17.8092 9.43082C18.3833 10.7235 18.5079 12.1713 18.1632 13.543C17.8184 14.9148 17.0241 16.1316 15.907 16.9993C14.7899 17.8669 13.4144 18.3354 12 18.33Z" fill="white"/>
<path d="M10 8.56995L11.14 13.1899H12.46L13.53 8.56995C13.53 8.56995 10.09 8.59995 10 8.56995Z" fill="white"/>
<path d="M12.45 14.29H10.94V15.8H12.45V14.29Z" fill="white"/>
</svg>
