<svg width="14" height="14" viewBox="0 0 14 14" fill="none" xmlns="http://www.w3.org/2000/svg">
<path d="M10.5627 2.39331C11.0083 2.39331 11.4093 2.74788 11.4093 3.23542C11.4093 3.67863 11.0528 4.07752 10.5627 4.07752C10.117 4.07752 9.76054 3.72295 9.76054 3.23542C9.71597 2.7922 10.117 2.39331 10.5627 2.39331Z" fill="white"/>
<path d="M13.682 3.45706C13.7712 4.52078 13.8603 9.66205 13.5484 10.8587C13.1027 12.41 12.0778 13.3407 10.5181 13.6066C9.93881 13.6953 8.33457 13.7396 6.73032 13.7396C5.08152 13.7396 3.43272 13.6953 2.89797 13.518C1.33829 13.1191 0.402473 12.0997 0.135099 10.5042C-0.0431504 9.3518 -0.0877113 3.9446 0.268787 2.79224C0.71441 1.28532 1.73935 0.398892 3.29903 0.132964C4.01202 -2.64176e-08 5.39346 0 6.77489 0C8.0672 0 9.3595 0.0443213 10.1616 0.0886426C11.0974 0.132964 11.9887 0.443213 12.7017 1.10803C13.2364 1.77285 13.5929 2.57064 13.682 3.45706ZM12.3452 10.3269C12.5234 9.13019 12.5234 4.69806 12.4343 3.59003C12.3006 2.39335 11.5876 1.59557 10.3844 1.41828C9.80512 1.32964 8.37913 1.28532 6.95313 1.28532C5.5717 1.28532 4.19027 1.32964 3.61096 1.37396C2.40778 1.50693 1.60566 2.26039 1.38285 3.45706C1.2046 4.69806 1.2046 9.44044 1.33829 10.3712C1.47197 11.3463 2.05128 12.0554 3.03165 12.3213C3.5664 12.4543 5.17064 12.5429 6.73032 12.5429C8.20088 12.5429 9.58231 12.4986 10.1171 12.4543C11.3648 12.277 12.1669 11.5235 12.3452 10.3269Z" fill="white"/>
<path d="M6.864 3.36841C8.82474 3.36841 10.3844 4.96398 10.3844 6.91411C10.3844 8.86425 8.78018 10.4155 6.81943 10.4155C4.85869 10.4155 3.29901 8.81993 3.29901 6.86979C3.34357 4.96398 4.90326 3.36841 6.864 3.36841ZM6.81943 9.1745C8.06718 9.1745 9.09212 8.15511 9.13668 6.91411C9.13668 5.67312 8.15631 4.60941 6.90856 4.60941C5.66082 4.60941 4.63588 5.6288 4.59132 6.86979C4.54675 8.11079 5.52713 9.1745 6.81943 9.1745Z" fill="white"/>
</svg>
