<svg width="15" height="12" viewBox="0 0 15 12" fill="none" xmlns="http://www.w3.org/2000/svg">
<path d="M14.4382 1.37396C14.3491 1.55125 14.2154 1.68421 14.0817 1.81717C13.7698 2.21607 13.4133 2.52632 13.0122 2.83656L12.9676 2.92521C12.9676 3.36842 12.9676 3.81163 12.9231 4.21053C12.7894 5.14127 12.522 5.98338 12.1655 6.82548C11.7645 7.66759 11.2297 8.46537 10.5613 9.13019C9.40266 10.2825 8.06579 11.036 6.46154 11.3906C5.92679 11.5235 5.34748 11.5679 4.81273 11.5679C4.72361 11.5679 4.63448 11.5679 4.54536 11.5679C2.94111 11.5679 1.47056 11.1247 0.0891234 10.2825L0 10.2382C0.222812 10.2825 0.445623 10.2825 0.712997 10.2825C1.51512 10.2825 2.22812 10.1496 2.98568 9.83933C3.47586 9.61773 3.96605 9.3518 4.41167 8.99723C2.89655 8.95291 1.91618 7.84487 1.69337 6.95845C1.87162 7.00277 2.04987 7.00277 2.22812 7.00277C2.45093 7.00277 2.7183 6.95845 2.94112 6.91413H2.98568C2.13899 6.73684 1.51512 6.29363 1.0695 5.58449C0.757561 5.09695 0.623874 4.5651 0.623874 4.03324C1.02493 4.25485 1.47056 4.38781 1.96074 4.38781C1.33687 3.9446 0.935808 3.36842 0.757559 2.61496C0.579309 1.8615 0.712998 1.15235 1.11406 0.487535C2.7183 2.34903 4.72361 3.41274 7.2191 3.59003C7.2191 3.45706 7.17454 3.36842 7.17454 3.27978C7.08541 2.57064 7.26366 1.95014 7.62016 1.37396C8.11035 0.620498 8.77878 0.177285 9.62547 0.0443213C9.80372 -4.29285e-08 9.98197 0 10.1602 0C10.9178 0 11.6308 0.310249 12.2101 0.886427C12.2546 0.930748 12.2992 0.930748 12.2992 0.930748H12.3438C12.9676 0.797784 13.547 0.576177 14.0817 0.265928H14.1263C13.9035 0.930748 13.4578 1.4626 12.8785 1.8615C13.3687 1.77285 13.9035 1.59557 14.4382 1.37396Z" fill="white"/>
</svg>
