<svg width="15" height="10" viewBox="0 0 15 10" fill="none" xmlns="http://www.w3.org/2000/svg">
<path d="M13.8901 1.28532C14.3803 2.61496 14.3803 7.49031 13.7565 8.77562C13.5782 9.1302 13.3108 9.3518 12.9989 9.57341C12.5087 9.83933 9.74585 9.92798 6.98299 9.92798C4.4875 9.92798 1.99201 9.83934 1.4127 9.66205C0.877953 9.48477 0.521457 9.13019 0.343208 8.59834C-0.102416 7.31302 -0.236101 1.8615 0.699707 0.797785C1.01164 0.443215 1.4127 0.221607 1.90289 0.177286C3.01695 0.044322 5.11137 0 7.2058 0C9.79042 0 12.375 0.088642 12.8652 0.265927C13.3108 0.443213 13.6673 0.797785 13.8901 1.28532ZM5.33419 7.13573C6.80474 6.38227 8.2753 5.62881 9.79042 4.83103C8.31986 4.07756 6.84931 3.27978 5.37875 2.52631C5.33419 4.07756 5.33419 5.58449 5.33419 7.13573Z" fill="white"/>
</svg>
